<mxfile host="Electron" modified="2023-09-19T16:35:52.335Z" agent="Mozilla/5.0 (Windows NT 10.0; Win64; x64) AppleWebKit/537.36 (KHTML, like Gecko) draw.io/21.6.8 Chrome/114.0.5735.289 Electron/25.5.0 Safari/537.36" etag="fFn-zRFL0eHmhzP7c4pN" version="21.6.8" type="device">
  <diagram name="Page-1" id="-hiMTYVra8NEYJS90R-R">
    <mxGraphModel dx="1434" dy="956" grid="1" gridSize="10" guides="1" tooltips="1" connect="1" arrows="1" fold="1" page="1" pageScale="1" pageWidth="850" pageHeight="1100" math="0" shadow="0">
      <root>
        <mxCell id="0" />
        <mxCell id="1" parent="0" />
        <mxCell id="3mSz3onfg45XP_qRRyP_-27" style="rounded=0;orthogonalLoop=1;jettySize=auto;html=1;entryX=0.5;entryY=1;entryDx=0;entryDy=0;endArrow=none;endFill=0;" parent="1" edge="1">
          <mxGeometry relative="1" as="geometry">
            <mxPoint x="498.4744471977874" y="323.04805754687777" as="sourcePoint" />
            <mxPoint x="500" y="320" as="targetPoint" />
          </mxGeometry>
        </mxCell>
        <mxCell id="3mSz3onfg45XP_qRRyP_-7" value="Podcaster&lt;br&gt;(Primary)" style="shape=umlActor;verticalLabelPosition=bottom;verticalAlign=top;html=1;outlineConnect=0;" parent="1" vertex="1">
          <mxGeometry x="350" y="480" width="30" height="60" as="geometry" />
        </mxCell>
        <mxCell id="3mSz3onfg45XP_qRRyP_-19" value="1" style="text;html=1;align=center;verticalAlign=middle;resizable=0;points=[];autosize=1;strokeColor=none;fillColor=none;" parent="1" vertex="1">
          <mxGeometry x="320" y="450" width="30" height="30" as="geometry" />
        </mxCell>
        <mxCell id="3mSz3onfg45XP_qRRyP_-29" value="1" style="text;html=1;align=center;verticalAlign=middle;resizable=0;points=[];autosize=1;strokeColor=none;fillColor=none;" parent="1" vertex="1">
          <mxGeometry x="350" y="440" width="30" height="30" as="geometry" />
        </mxCell>
        <mxCell id="3mSz3onfg45XP_qRRyP_-30" value="1" style="text;html=1;align=center;verticalAlign=middle;resizable=0;points=[];autosize=1;strokeColor=none;fillColor=none;" parent="1" vertex="1">
          <mxGeometry x="395" y="450" width="30" height="30" as="geometry" />
        </mxCell>
        <mxCell id="3mSz3onfg45XP_qRRyP_-78" style="rounded=0;orthogonalLoop=1;jettySize=auto;html=1;entryX=0.5;entryY=1;entryDx=0;entryDy=0;exitX=0.667;exitY=0;exitDx=0;exitDy=0;exitPerimeter=0;endArrow=none;endFill=0;" parent="1" source="3mSz3onfg45XP_qRRyP_-32" target="6nD5bu2AD3gDsjSP0be4-18" edge="1">
          <mxGeometry relative="1" as="geometry">
            <mxPoint x="205" y="261.99" as="sourcePoint" />
            <mxPoint x="254.01" y="150.00000000000023" as="targetPoint" />
          </mxGeometry>
        </mxCell>
        <mxCell id="3mSz3onfg45XP_qRRyP_-32" value="Keyboard" style="rounded=0;whiteSpace=wrap;html=1;" parent="1" vertex="1">
          <mxGeometry x="120" y="270" width="120" height="60" as="geometry" />
        </mxCell>
        <mxCell id="3mSz3onfg45XP_qRRyP_-81" style="rounded=0;orthogonalLoop=1;jettySize=auto;html=1;entryX=0.5;entryY=1;entryDx=0;entryDy=0;endArrow=none;endFill=0;" parent="1" source="3mSz3onfg45XP_qRRyP_-33" target="6nD5bu2AD3gDsjSP0be4-27" edge="1">
          <mxGeometry relative="1" as="geometry">
            <mxPoint x="400" y="150" as="targetPoint" />
          </mxGeometry>
        </mxCell>
        <mxCell id="3mSz3onfg45XP_qRRyP_-33" value="Mouse" style="rounded=0;whiteSpace=wrap;html=1;" parent="1" vertex="1">
          <mxGeometry x="440" y="260" width="120" height="60" as="geometry" />
        </mxCell>
        <mxCell id="3mSz3onfg45XP_qRRyP_-79" value="" style="edgeStyle=orthogonalEdgeStyle;rounded=0;orthogonalLoop=1;jettySize=auto;html=1;entryX=1;entryY=0;entryDx=0;entryDy=0;" parent="1" source="3mSz3onfg45XP_qRRyP_-35" target="3mSz3onfg45XP_qRRyP_-35" edge="1">
          <mxGeometry relative="1" as="geometry">
            <Array as="points">
              <mxPoint x="360" y="260" />
            </Array>
          </mxGeometry>
        </mxCell>
        <mxCell id="3mSz3onfg45XP_qRRyP_-35" value="Display" style="rounded=0;whiteSpace=wrap;html=1;" parent="1" vertex="1">
          <mxGeometry x="260" y="260" width="120" height="60" as="geometry" />
        </mxCell>
        <mxCell id="3mSz3onfg45XP_qRRyP_-37" value="Enters information" style="text;html=1;align=center;verticalAlign=middle;resizable=0;points=[];autosize=1;strokeColor=none;fillColor=none;" parent="1" vertex="1">
          <mxGeometry x="150" y="410" width="120" height="30" as="geometry" />
        </mxCell>
        <mxCell id="3mSz3onfg45XP_qRRyP_-38" value="Enters information" style="text;html=1;align=center;verticalAlign=middle;resizable=0;points=[];autosize=1;strokeColor=none;fillColor=none;" parent="1" vertex="1">
          <mxGeometry x="435" y="390" width="120" height="30" as="geometry" />
        </mxCell>
        <mxCell id="3mSz3onfg45XP_qRRyP_-42" value="" style="rounded=0;orthogonalLoop=1;jettySize=auto;html=1;entryX=0.5;entryY=1;entryDx=0;entryDy=0;endArrow=none;endFill=0;exitX=0.187;exitY=1.147;exitDx=0;exitDy=0;exitPerimeter=0;" parent="1" source="3mSz3onfg45XP_qRRyP_-29" target="3mSz3onfg45XP_qRRyP_-35" edge="1">
          <mxGeometry relative="1" as="geometry">
            <mxPoint x="349.99999999999994" y="457.0800000000001" as="sourcePoint" />
            <mxPoint x="323.5863809020504" y="349.9985165257813" as="targetPoint" />
          </mxGeometry>
        </mxCell>
        <mxCell id="3mSz3onfg45XP_qRRyP_-50" style="rounded=0;orthogonalLoop=1;jettySize=auto;html=1;endArrow=none;endFill=0;exitX=0.5;exitY=1;exitDx=0;exitDy=0;" parent="1" source="3mSz3onfg45XP_qRRyP_-32" target="3mSz3onfg45XP_qRRyP_-7" edge="1">
          <mxGeometry relative="1" as="geometry">
            <mxPoint x="197.68637323583403" y="357.02820477055764" as="sourcePoint" />
          </mxGeometry>
        </mxCell>
        <mxCell id="3mSz3onfg45XP_qRRyP_-49" value="" style="rounded=0;orthogonalLoop=1;jettySize=auto;html=1;entryX=0.5;entryY=1;entryDx=0;entryDy=0;endArrow=none;endFill=0;" parent="1" target="3mSz3onfg45XP_qRRyP_-33" edge="1">
          <mxGeometry relative="1" as="geometry">
            <mxPoint x="388.45" y="470" as="sourcePoint" />
            <mxPoint x="479.99327393012726" y="358.12286271753953" as="targetPoint" />
          </mxGeometry>
        </mxCell>
        <mxCell id="3mSz3onfg45XP_qRRyP_-80" style="edgeStyle=orthogonalEdgeStyle;rounded=0;orthogonalLoop=1;jettySize=auto;html=1;entryX=0.5;entryY=0;entryDx=0;entryDy=0;" parent="1" source="3mSz3onfg45XP_qRRyP_-51" target="3mSz3onfg45XP_qRRyP_-35" edge="1">
          <mxGeometry relative="1" as="geometry" />
        </mxCell>
        <mxCell id="3mSz3onfg45XP_qRRyP_-51" value="Computer" style="rounded=0;whiteSpace=wrap;html=1;" parent="1" vertex="1">
          <mxGeometry x="260" y="55" width="120" height="60" as="geometry" />
        </mxCell>
        <mxCell id="3mSz3onfg45XP_qRRyP_-67" style="edgeStyle=orthogonalEdgeStyle;rounded=0;orthogonalLoop=1;jettySize=auto;html=1;" parent="1" source="3mSz3onfg45XP_qRRyP_-54" edge="1">
          <mxGeometry relative="1" as="geometry">
            <mxPoint x="365" y="580" as="targetPoint" />
          </mxGeometry>
        </mxCell>
        <mxCell id="3mSz3onfg45XP_qRRyP_-54" value="Podcast Manager&lt;br&gt;(Secondary)" style="shape=umlActor;verticalLabelPosition=bottom;verticalAlign=top;html=1;outlineConnect=0;" parent="1" vertex="1">
          <mxGeometry x="350" y="610" width="30" height="60" as="geometry" />
        </mxCell>
        <mxCell id="3mSz3onfg45XP_qRRyP_-56" value="" style="triangle;whiteSpace=wrap;html=1;fillColor=#000000;rotation=-115;" parent="1" vertex="1">
          <mxGeometry x="190" y="390" width="20" height="20" as="geometry" />
        </mxCell>
        <mxCell id="3mSz3onfg45XP_qRRyP_-57" value="" style="triangle;whiteSpace=wrap;html=1;fillColor=#000000;rotation=-50;" parent="1" vertex="1">
          <mxGeometry x="480" y="360" width="20" height="20" as="geometry" />
        </mxCell>
        <mxCell id="3mSz3onfg45XP_qRRyP_-60" value="" style="triangle;whiteSpace=wrap;html=1;fillColor=#000000;rotation=-104;" parent="1" vertex="1">
          <mxGeometry x="350" y="360" width="20" height="20" as="geometry" />
        </mxCell>
        <mxCell id="3mSz3onfg45XP_qRRyP_-62" value="Interacts through" style="text;html=1;align=center;verticalAlign=middle;resizable=0;points=[];autosize=1;strokeColor=none;fillColor=none;" parent="1" vertex="1">
          <mxGeometry x="330" y="380" width="110" height="30" as="geometry" />
        </mxCell>
        <mxCell id="3mSz3onfg45XP_qRRyP_-74" value="1" style="text;html=1;align=center;verticalAlign=middle;resizable=0;points=[];autosize=1;strokeColor=none;fillColor=none;" parent="1" vertex="1">
          <mxGeometry x="205" y="330" width="30" height="30" as="geometry" />
        </mxCell>
        <mxCell id="3mSz3onfg45XP_qRRyP_-75" value="1" style="text;html=1;align=center;verticalAlign=middle;resizable=0;points=[];autosize=1;strokeColor=none;fillColor=none;" parent="1" vertex="1">
          <mxGeometry x="499.99" y="320" width="30" height="30" as="geometry" />
        </mxCell>
        <mxCell id="3mSz3onfg45XP_qRRyP_-76" value="1" style="text;html=1;align=center;verticalAlign=middle;resizable=0;points=[];autosize=1;strokeColor=none;fillColor=none;" parent="1" vertex="1">
          <mxGeometry x="330" y="320" width="30" height="30" as="geometry" />
        </mxCell>
        <mxCell id="6nD5bu2AD3gDsjSP0be4-4" value="1" style="text;html=1;align=center;verticalAlign=middle;resizable=0;points=[];autosize=1;strokeColor=none;fillColor=none;" vertex="1" parent="1">
          <mxGeometry x="205" y="240" width="30" height="30" as="geometry" />
        </mxCell>
        <mxCell id="6nD5bu2AD3gDsjSP0be4-5" value="1" style="text;html=1;align=center;verticalAlign=middle;resizable=0;points=[];autosize=1;strokeColor=none;fillColor=none;" vertex="1" parent="1">
          <mxGeometry x="290" y="230" width="30" height="30" as="geometry" />
        </mxCell>
        <mxCell id="6nD5bu2AD3gDsjSP0be4-6" value="1" style="text;html=1;align=center;verticalAlign=middle;resizable=0;points=[];autosize=1;strokeColor=none;fillColor=none;" vertex="1" parent="1">
          <mxGeometry x="435" y="230" width="30" height="30" as="geometry" />
        </mxCell>
        <mxCell id="6nD5bu2AD3gDsjSP0be4-17" value="" style="rhombus;whiteSpace=wrap;html=1;fillColor=#000000;rotation=0;" vertex="1" parent="1">
          <mxGeometry x="310" y="115" width="20" height="35" as="geometry" />
        </mxCell>
        <mxCell id="6nD5bu2AD3gDsjSP0be4-18" value="" style="rhombus;whiteSpace=wrap;html=1;fillColor=#FFFFFF;rotation=15;" vertex="1" parent="1">
          <mxGeometry x="248.03" y="115" width="20.65" height="30.08" as="geometry" />
        </mxCell>
        <mxCell id="6nD5bu2AD3gDsjSP0be4-27" value="" style="rhombus;whiteSpace=wrap;html=1;fillColor=#FFFFFF;rotation=-30;" vertex="1" parent="1">
          <mxGeometry x="374.6708225947765" y="109.99983106807113" width="20.65" height="30.08" as="geometry" />
        </mxCell>
      </root>
    </mxGraphModel>
  </diagram>
</mxfile>
